<?xml version="1.0" encoding="UTF-8"?>
<svg width="180" height="45" viewBox="0 0 180 45" xmlns="http://www.w3.org/2000/svg">
  <defs>
    <linearGradient id="logoGradient" x1="0%" y1="0%" x2="100%" y2="0%">
      <stop offset="0%" style="stop-color:#059669;stop-opacity:1" />
      <stop offset="100%" style="stop-color:#10b981;stop-opacity:1" />
    </linearGradient>
  </defs>
  
  <!-- Moon symbol -->
  <path d="M35 10c-1.5-1.2-3.3-2-5.3-2.3-4.3-0.7-8.5 1.4-10.7 5C16.8 9 12.6 6.9 8.3 7.7c-6.1 1-10.1 6.9-9.1 13 1 6.1 6.9 10.1 13 9.1 1.9-0.3 3.7-1.1 5.2-2.3 2.2 3.6 6.4 5.7 10.7 5 6.1-1 10.1-6.9 9.1-13-0.4-2.5-1.5-4.7-3.2-6.4z" 
        fill="url(#logoGradient)"/>
  
  <!-- Text "MOON AUTO" -->
  <text x="50" y="28" 
        style="font-family: Arial, sans-serif; font-size: 24px; font-weight: bold; fill: #059669;">
    MOON AUTO
  </text>
  
  <!-- Tagline -->
  <text x="52" y="40" 
        style="font-family: Arial, sans-serif; font-size: 10px; fill: #64748b;">
    Premium Auto Parts
  </text>
</svg>
